<svg xmlns="http://www.w3.org/2000/svg" xmlns:xlink="http://www.w3.org/1999/xlink" viewBox="0 0 32 32"><defs><style>.cls-1{fill:url(#New_Gradient_Swatch_10);}.cls-2{fill:#fff;}</style><linearGradient id="New_Gradient_Swatch_10" y1="16" x2="32" y2="16" gradientUnits="userSpaceOnUse"><stop offset="0" stop-color="#9ac31c"/><stop offset="1" stop-color="#53843f"/></linearGradient></defs><g id="Layer_2" data-name="Layer 2"><g id="Layer_2-2" data-name="Layer 2"><rect class="cls-1" width="32" height="32" rx="16"/><path class="cls-2" d="M22.44,10.42s.39,4.05-2,5.89S15.26,17.83,15,18.8c0,0-.14-.85,2-1.71,3-1.2,4.16-2.77,4.42-4.91,0,.1-.64,3.34-5.62,4.84A4.6,4.6,0,0,1,17,13.51C18.45,12.2,21.93,11.89,22.44,10.42Z"/><path class="cls-2" d="M28.21,16A12.21,12.21,0,0,1,16,28.21,12.06,12.06,0,0,1,13.9,28,12.66,12.66,0,0,1,12,27.55a4.79,4.79,0,0,1-2.81-2.49l0,0v0a4,4,0,0,1,.67-4.11,13.13,13.13,0,0,1,4.79-3c.6-.26,1.13-.48,1.51-.67a16.72,16.72,0,0,0-1.42,1l-.63.36-.48.25a9.26,9.26,0,0,0-2.95,2.37A3.46,3.46,0,0,0,10,24a3.78,3.78,0,0,0,2.74,2.79,11.13,11.13,0,0,0,3.28.49,11.32,11.32,0,1,0-7.9-3.22,3.81,3.81,0,0,0,.56,1.66A12.21,12.21,0,1,1,28.21,16Z"/><path class="cls-2" d="M15,10.51c-1.11,1-.12,4.18-.75,5.92a4.39,4.39,0,0,1-2.66,2.35c-.5-5,2.14-6.69,2.22-6.74-1.79,1-2.76,2.61-2.72,5.71a4.29,4.29,0,0,1-.31,1.92l-.27.19c.27-.89-.66-3,0-5.44C11.26,11.64,15,10.51,15,10.51Z"/></g></g></svg>